<svg width="89" height="110" viewBox="0 0 89 110" fill="none" xmlns="http://www.w3.org/2000/svg">
<path d="M76.9352 3.91637L76.9464 3.90924L76.9575 3.90199C78.1118 3.15175 79.1538 2.82814 80.1103 2.79222C81.0642 2.7564 82.1043 3.00018 83.2683 3.65261C85.4572 4.87961 86.4951 6.63498 86.5 9.27958L86.5 100.255C86.5 101.649 86.205 102.732 85.7079 103.593C85.2123 104.451 84.4372 105.223 83.2668 105.88C82.0992 106.536 81.0581 106.78 80.1059 106.744C79.1516 106.709 78.1126 106.385 76.9624 105.633L76.9488 105.625L76.9352 105.616L5.32066 60.1431C3.408 58.8598 2.50001 57.1613 2.50001 54.7661C2.50001 52.3709 3.408 50.6724 5.32066 49.3891L76.9352 3.91637Z" stroke="url(#paint0_linear_56_9)" stroke-width="5"/>
<defs>
<linearGradient id="paint0_linear_56_9" x1="69.1098" y1="65.6642" x2="29.1085" y2="64.2837" gradientUnits="userSpaceOnUse">
<stop stop-color="#3C72B5"/>
<stop offset="1" stop-color="#663FBE"/>
</linearGradient>
</defs>
</svg>
