<svg width="89" height="110" viewBox="0 0 89 110" fill="none" xmlns="http://www.w3.org/2000/svg">
<path d="M12.0648 105.62L12.0536 105.627L12.0425 105.635C10.8882 106.385 9.84617 106.708 8.88969 106.744C7.93578 106.78 6.89566 106.536 5.73174 105.884C3.5428 104.657 2.50493 102.902 2.5 100.257V9.28184C2.5 7.88754 2.79499 6.80441 3.29206 5.944C3.78768 5.08609 4.56277 4.31327 5.73316 3.65621C6.9008 3.0007 7.94186 2.75647 8.89409 2.79223C9.84845 2.82806 10.8874 3.15177 12.0376 3.90322L12.0512 3.91208L12.0648 3.92076L83.6793 49.3936C85.592 50.6768 86.5 52.3753 86.5 54.7705C86.5 57.1657 85.592 58.8642 83.6793 60.1475L12.0648 105.62Z" stroke="url(#paint0_linear_54_482)" stroke-width="5"/>
<defs>
<linearGradient id="paint0_linear_54_482" x1="19.8902" y1="43.8724" x2="59.8915" y2="45.2529" gradientUnits="userSpaceOnUse">
<stop stop-color="#663FBE"/>
<stop offset="1" stop-color="#3C72B5"/>
</linearGradient>
</defs>
</svg>
