<svg width="37" height="31" viewBox="0 0 37 31" fill="none" xmlns="http://www.w3.org/2000/svg">
<path d="M33.8468 0.2737C33.8468 0.2737 37.2693 -1.06815 36.983 2.19038C36.8887 3.53223 36.0333 8.22915 35.3673 13.3087L33.0857 28.3569C33.0857 28.3569 32.8954 30.5615 31.1838 30.945C29.473 31.3276 26.9059 29.6031 26.4302 29.2196C26.0496 28.9317 19.2999 24.6183 16.9231 22.5103C16.2571 21.9346 15.496 20.785 17.0183 19.4431L27.0002 9.85797C28.141 8.70832 29.2818 6.02462 24.5283 9.28315L11.2173 18.3883C11.2173 18.3883 9.69588 19.3475 6.84428 18.4848L0.663607 16.5672C0.663607 16.5672 -1.61803 15.1297 2.28013 13.6922C11.7881 9.18749 23.4826 4.58711 33.8451 0.2737H33.8468Z" fill="white"/>
</svg>
